<svg width="17" height="17" viewBox="0 0 17 17" fill="none" xmlns="http://www.w3.org/2000/svg">
<path d="M7.75649 6.64355V7.93519C7.27213 7.8141 6.94922 7.53828 6.94922 7.28937C6.94922 7.03374 7.27213 6.75792 7.75649 6.64355Z" fill="#FF0101"/>
<path d="M9.5729 9.71174C9.5729 9.96065 9.24999 10.2365 8.76562 10.3576V9.06592C9.24999 9.18028 9.5729 9.4561 9.5729 9.71174Z" fill="#FF0101"/>
<path d="M12.8968 3.85721C11.659 2.61939 10.0108 1.93994 8.26173 1.93994C6.51264 1.93994 4.86446 2.61939 3.62664 3.85721C2.38209 5.09503 1.70264 6.74321 1.70264 8.49903C1.70264 9.36012 1.87082 10.2078 2.20046 11.0083C2.53009 11.8089 3.01446 12.5219 3.62664 13.1341C4.23209 13.7463 4.95191 14.2239 5.75245 14.5536C6.553 14.8899 7.39391 15.0581 8.26173 15.0581C9.12955 15.0581 9.97045 14.8899 10.771 14.5536C11.5715 14.2239 12.2914 13.7463 12.8968 13.1341C13.509 12.5219 13.9934 11.8089 14.323 11.0083C14.6526 10.2078 14.8208 9.36012 14.8208 8.49903C14.8208 6.74321 14.1414 5.09503 12.8968 3.85721ZM8.76627 11.385V11.5263C8.76627 11.8021 8.53755 12.0308 8.26173 12.0308C7.98591 12.0308 7.75718 11.8021 7.75718 11.5263V11.3783C7.16518 11.2841 6.64045 11.0285 6.30409 10.645C6.15609 10.4701 6.14264 10.2145 6.27718 10.0261C6.41173 9.83103 6.65391 9.76376 6.86918 9.84449L7.75718 10.1808V8.95649C6.70773 8.79503 5.94082 8.11558 5.94082 7.28812C5.94082 6.45394 6.70773 5.78121 7.75718 5.61303V5.47176C7.75718 5.18921 7.98591 4.96721 8.26173 4.96721C8.53755 4.96721 8.76627 5.18921 8.76627 5.47176V5.61303C9.35827 5.71394 9.883 5.96958 10.2194 6.34631C10.3674 6.52122 10.3808 6.77685 10.2463 6.97194C10.1521 7.10649 9.99736 7.18722 9.83591 7.18722C9.77536 7.18722 9.71482 7.17376 9.65427 7.15358L8.76627 6.81049V8.03485C9.81573 8.1963 10.5826 8.87576 10.5826 9.70994C10.5826 10.5441 9.81573 11.2169 8.76627 11.385Z" fill="#FF0101"/>
</svg>
