<svg width="22" height="22" viewBox="0 0 22 22" fill="none" xmlns="http://www.w3.org/2000/svg">
<path fill-rule="evenodd" clip-rule="evenodd" d="M10.7721 0C12.1916 0.0506994 13.6618 0.0506994 15.0812 0.101392C16.3486 0.152085 17.5146 0.354867 18.6299 1.0139C20.0494 1.87572 20.9112 3.14309 21.2154 4.76533C21.3674 5.72853 21.4181 6.74243 21.4688 7.70564C21.5195 9.83483 21.4688 11.964 21.4688 14.0932C21.4688 15.2085 21.4181 16.3238 21.0633 17.3884C20.3535 19.4669 18.8834 20.7342 16.7542 21.1398C15.791 21.3426 14.7771 21.3426 13.8139 21.3933C11.6846 21.444 9.60615 21.3933 7.47694 21.3933C6.36165 21.3933 5.24635 21.3426 4.18176 20.9877C2.10325 20.278 0.835867 18.8078 0.430303 16.6786C0.227525 15.7154 0.227525 14.7015 0.176829 13.7383C0.126131 11.6091 0.176829 9.47996 0.176829 7.35077C0.176829 6.23549 0.227525 5.1202 0.582391 4.05559C1.29213 1.9771 2.76229 0.709734 4.89148 0.304173C5.8547 0.101399 6.8686 0.101399 7.83181 0.0506994C8.79502 0 9.75823 0 10.7721 0ZM19.5426 10.4939C19.4919 10.4939 19.5426 10.4939 19.5426 10.4939C19.4919 9.6321 19.4919 8.82097 19.4919 7.95916C19.4919 7.14805 19.4412 6.33692 19.3398 5.52581C19.137 3.70078 18.0724 2.4841 16.2981 2.12924C15.3855 1.92646 14.3716 1.92646 13.4591 1.92646C11.6341 1.87577 9.85976 1.87577 8.03473 1.92646C7.12222 1.92646 6.2097 1.97715 5.34788 2.12924C3.82702 2.38271 2.76243 3.24453 2.30617 4.76538C2.15408 5.27233 2.10339 5.77928 2.05269 6.28623C2.002 8.21264 2.002 10.139 2.002 12.0655C2.002 13.2821 2.05269 14.5495 2.15408 15.7662C2.30617 17.5912 3.42146 18.8586 5.2465 19.1627C6.159 19.3148 7.12222 19.3655 8.08543 19.3655C9.85976 19.4162 11.6341 19.3655 13.4591 19.3655C14.2703 19.3655 15.0814 19.3148 15.8925 19.2134C16.6529 19.1627 17.3627 18.9093 17.971 18.4023C18.9849 17.5912 19.3398 16.5266 19.3905 15.3099C19.4919 13.7891 19.4919 12.1668 19.5426 10.4939Z" fill="#535353"/>
<path fill-rule="evenodd" clip-rule="evenodd" d="M16.2471 10.6965C16.2471 13.7381 13.8137 16.1715 10.772 16.1715C7.73025 16.1715 5.29688 13.7381 5.29688 10.6458C5.29688 7.65478 7.78094 5.22144 10.8227 5.22144C13.8137 5.22144 16.2471 7.65478 16.2471 10.6965ZM10.7719 14.245C12.6983 14.245 14.3205 12.6228 14.3205 10.6964C14.3205 8.77 12.6983 7.14777 10.7719 7.14777C8.79474 7.14777 7.22318 8.77 7.22318 10.6964C7.17248 12.6228 8.79474 14.245 10.7719 14.245Z" fill="#535353"/>
<path d="M17.7181 4.96782C17.7181 5.67756 17.1605 6.2859 16.4507 6.2859C15.741 6.2859 15.1327 5.67756 15.1834 4.96782C15.1834 4.25809 15.741 3.70044 16.4507 3.70044C17.1605 3.70044 17.7181 4.25808 17.7181 4.96782Z" fill="#535353"/>
</svg>
