<svg width="14" height="14" viewBox="0 0 14 14" fill="none" xmlns="http://www.w3.org/2000/svg">
<g clip-path="url(#clip0_21_1070)">
<path fill-rule="evenodd" clip-rule="evenodd" d="M1.33301 2.88983C0.464534 4.08405 -0.00223395 5.52322 8.0389e-06 6.99983C-0.00223395 8.47645 0.464534 9.91562 1.33301 11.1098C1.98916 10.6683 2.5189 10.0635 2.87001 9.35483C3.23691 8.62422 3.42637 7.81739 3.42301 6.99983C3.42488 6.18245 3.2355 5.37596 2.87001 4.64483C2.5189 3.9362 1.98916 3.33132 1.33301 2.88983ZM2.15901 1.94283C2.93381 2.49495 3.56091 3.22919 3.98501 4.08083C4.43801 4.97583 4.67301 5.98083 4.67301 6.99983C4.6745 8.0135 4.43889 9.01346 3.98501 9.91983C3.56077 10.7711 2.93369 11.505 2.15901 12.0568C3.3055 13.1563 4.79271 13.8318 6.37501 13.9718V0.027832C4.74501 0.171832 3.27501 0.874832 2.15901 1.94283ZM7.62501 13.9728C9.20743 13.8325 10.6947 13.1567 11.841 12.0568C11.0662 11.5047 10.4391 10.7705 10.015 9.91883C9.56128 9.01276 9.32567 8.01316 9.32701 6.99983C9.32701 5.97983 9.56201 4.97583 10.015 4.07983C10.439 3.22867 11.0657 2.49479 11.84 1.94283C10.694 0.843777 9.2076 0.168283 7.62601 0.027832V13.9718L7.62501 13.9728ZM14 6.99983C14.0022 8.47645 13.5355 9.91562 12.667 11.1098C12.0109 10.6683 11.4811 10.0635 11.13 9.35483C10.7631 8.62422 10.5736 7.81739 10.577 6.99983C10.577 6.17183 10.768 5.35983 11.13 4.64483C11.4811 3.9362 12.0109 3.33132 12.667 2.88983C13.5355 4.08405 14.0022 5.52322 14 6.99983Z" fill="#FA8735"/>
</g>
<defs>
<clipPath id="clip0_21_1070">
<rect width="14" height="14" fill="white"/>
</clipPath>
</defs>
</svg>
