<svg width="22" height="19" viewBox="0 0 22 19" fill="none" xmlns="http://www.w3.org/2000/svg">
<path fill-rule="evenodd" clip-rule="evenodd" d="M21.6158 2.82596C20.8125 3.1774 20.0092 3.42842 19.1055 3.52883C20.0092 2.97658 20.7121 2.1231 21.0133 1.11901C20.1598 1.62106 19.2059 1.97249 18.252 2.1733C17.4488 1.31982 16.294 0.767578 15.0389 0.767578C12.6291 0.767578 10.6711 2.72555 10.6711 5.13537C10.6711 5.48681 10.7213 5.83823 10.7715 6.13947C7.10655 5.93865 3.89344 4.23169 1.73463 1.57085C1.33299 2.22351 1.13217 2.97658 1.13217 3.77985C1.13217 5.28599 1.88524 6.64151 3.09016 7.44478C2.38729 7.44478 1.68442 7.24397 1.08196 6.89253V6.94273C1.08196 9.05133 2.58811 10.8587 4.59631 11.2603C4.24487 11.3607 3.84323 11.4109 3.44159 11.4109C3.14037 11.4109 2.88934 11.3607 2.63832 11.3105C3.19057 13.0677 4.79713 14.3228 6.75511 14.373C5.24897 15.5277 3.39139 16.2306 1.33299 16.2306C0.981555 16.2306 0.630123 16.2306 0.278687 16.1804C2.23668 17.4355 4.49589 18.1383 7.00614 18.1383C15.0891 18.1383 19.457 11.4611 19.457 5.68762C19.457 5.48681 19.457 5.28599 19.457 5.13537C20.3104 4.48272 21.0635 3.67944 21.6158 2.82596Z" fill="white"/>
</svg>
