<svg width="17" height="17" viewBox="0 0 17 17" fill="none" xmlns="http://www.w3.org/2000/svg">
<path d="M12.5242 1.92529H4.22278C2.80332 1.92529 1.64624 3.08238 1.64624 4.50184V12.8033C1.64624 14.2227 2.80332 15.3798 4.22278 15.3798H12.5242C13.7486 15.3798 14.7711 14.5187 15.0335 13.3751C15.0739 13.3011 15.1008 13.2204 15.1008 13.1329V4.50184C15.1008 3.08238 13.9437 1.92529 12.5242 1.92529ZM13.0288 9.34547C13.0288 9.62129 12.8001 9.85002 12.5242 9.85002C12.2417 9.85002 12.0197 9.62129 12.0197 9.34547V7.95966C12.0197 7.68384 12.2417 7.45511 12.5242 7.45511C12.8001 7.45511 13.0288 7.68384 13.0288 7.95966V9.34547ZM3.71823 9.34547V7.95966C3.71823 7.68384 3.94696 7.45511 4.22278 7.45511C4.50532 7.45511 4.72732 7.68384 4.72732 7.95966V9.34547C4.72732 9.62129 4.50532 9.85002 4.22278 9.85002C3.94696 9.85002 3.71823 9.62129 3.71823 9.34547ZM10.95 6.58057V10.7246C10.95 11.0071 10.728 11.2291 10.4455 11.2291C10.1697 11.2291 9.94096 11.0071 9.94096 10.7246V6.58057C9.94096 6.29802 10.1697 6.07602 10.4455 6.07602C10.728 6.07602 10.95 6.29802 10.95 6.58057ZM8.87806 5.19475V12.1104C8.87806 12.3862 8.64933 12.6149 8.37351 12.6149C8.09769 12.6149 7.86897 12.3862 7.86897 12.1104V5.19475C7.86897 4.91893 8.09769 4.6902 8.37351 4.6902C8.64933 4.6902 8.87806 4.91893 8.87806 5.19475ZM6.80607 6.58057V10.7246C6.80607 11.0071 6.57734 11.2291 6.30152 11.2291C6.01898 11.2291 5.79698 11.0071 5.79698 10.7246V6.58057C5.79698 6.29802 6.01898 6.07602 6.30152 6.07602C6.57734 6.07602 6.80607 6.29802 6.80607 6.58057Z" fill="#94A3B8"/>
</svg>
